<svg xmlns="http://www.w3.org/2000/svg" xmlns:xlink="http://www.w3.org/1999/xlink" width="980" zoomAndPan="magnify" viewBox="0 0 735 449.999984" height="600" preserveAspectRatio="xMidYMid meet" version="1.0"><defs><clipPath id="6389386f06"><path d="M 279.136719 135 L 456.136719 135 L 456.136719 315 L 279.136719 315 Z M 279.136719 135 " clip-rule="nonzero"/></clipPath><clipPath id="39918eca67"><path d="M 279.136719 135 L 344 135 L 344 199 L 279.136719 199 Z M 279.136719 135 " clip-rule="nonzero"/></clipPath><clipPath id="a95157cf1b"><path d="M 433 161 L 456.136719 161 L 456.136719 184 L 433 184 Z M 433 161 " clip-rule="nonzero"/></clipPath></defs><g clip-path="url(#6389386f06)"><path fill="#0991ff" d="M 343.105469 198.609375 L 343.105469 135 L 279.1875 135 Z M 456.085938 183.914062 L 433.074219 161.285156 L 401.082031 193.023438 L 343.105469 135 L 343.105469 315 L 433.074219 224.964844 L 433.074219 183.914062 Z M 456.085938 183.914062 " fill-opacity="1" fill-rule="nonzero"/></g><g clip-path="url(#39918eca67)"><path fill="#62ccfd" d="M 279.1875 135 L 343.105469 198.609375 L 343.105469 135 L 279.1875 135 " fill-opacity="1" fill-rule="nonzero"/></g><path fill="#0991ff" d="M 343.105469 315 L 343.105469 135 L 433.074219 224.964844 L 343.105469 315 " fill-opacity="1" fill-rule="nonzero"/><path fill="#62ccfd" d="M 433.074219 161.285156 L 433.074219 224.964844 L 401.082031 193.023438 Z M 433.074219 161.285156 " fill-opacity="1" fill-rule="nonzero"/><g clip-path="url(#a95157cf1b)"><path fill="#0991ff" d="M 433.074219 161.285156 L 433.074219 183.914062 L 456.085938 183.914062 Z M 433.074219 161.285156 " fill-opacity="1" fill-rule="nonzero"/></g></svg>