<svg xmlns="http://www.w3.org/2000/svg" xmlns:xlink="http://www.w3.org/1999/xlink" width="980" zoomAndPan="magnify" viewBox="0 0 735 449.999984" height="600" preserveAspectRatio="xMidYMid meet" version="1.0"><defs><g/><clipPath id="5ed3756cd1"><path d="M 114.75 135 L 291.75 135 L 291.75 315 L 114.75 315 Z M 114.75 135 " clip-rule="nonzero"/></clipPath><clipPath id="380bff1142"><path d="M 114.75 135 L 179 135 L 179 199 L 114.75 199 Z M 114.75 135 " clip-rule="nonzero"/></clipPath><clipPath id="fef3aafb3a"><path d="M 268 161 L 291.75 161 L 291.75 184 L 268 184 Z M 268 161 " clip-rule="nonzero"/></clipPath></defs><g clip-path="url(#5ed3756cd1)"><path fill="#0991ff" d="M 178.71875 198.609375 L 178.71875 135 L 114.800781 135 Z M 291.699219 183.914062 L 268.691406 161.285156 L 236.695312 193.023438 L 178.71875 135 L 178.71875 315 L 268.691406 224.964844 L 268.691406 183.914062 Z M 291.699219 183.914062 " fill-opacity="1" fill-rule="nonzero"/></g><g clip-path="url(#380bff1142)"><path fill="#62ccfd" d="M 114.800781 135 L 178.71875 198.609375 L 178.71875 135 L 114.800781 135 " fill-opacity="1" fill-rule="nonzero"/></g><path fill="#0991ff" d="M 178.71875 315 L 178.71875 135 L 268.691406 224.964844 L 178.71875 315 " fill-opacity="1" fill-rule="nonzero"/><path fill="#62ccfd" d="M 268.691406 161.285156 L 268.691406 224.964844 L 236.695312 193.023438 Z M 268.691406 161.285156 " fill-opacity="1" fill-rule="nonzero"/><g clip-path="url(#fef3aafb3a)"><path fill="#0991ff" d="M 268.691406 161.285156 L 268.691406 183.914062 L 291.699219 183.914062 Z M 268.691406 161.285156 " fill-opacity="1" fill-rule="nonzero"/></g><g fill="#0991ff" fill-opacity="1"><g transform="translate(285.118174, 215.599992)"><g><path d="M 2.859375 0.28125 C 2.367188 0.28125 2.007812 0.203125 1.78125 0.046875 C 1.5625 -0.109375 1.472656 -0.375 1.515625 -0.75 C 1.753906 -3.113281 2.191406 -5.375 2.828125 -7.53125 C 3.472656 -9.6875 4.289062 -11.664062 5.28125 -13.46875 C 6.28125 -15.269531 7.40625 -16.820312 8.65625 -18.125 C 9 -18.34375 9.320312 -18.453125 9.625 -18.453125 C 9.9375 -18.453125 10.265625 -18.359375 10.609375 -18.171875 C 12.078125 -16.960938 13.332031 -15.519531 14.375 -13.84375 C 15.414062 -12.175781 16.21875 -10.375 16.78125 -8.4375 C 17.34375 -6.5 17.625 -4.519531 17.625 -2.5 C 17.625 -1.90625 17.597656 -1.304688 17.546875 -0.703125 C 17.535156 -0.316406 17.453125 -0.0625 17.296875 0.0625 C 17.140625 0.195312 16.882812 0.265625 16.53125 0.265625 C 16.050781 0.265625 15.707031 0.1875 15.5 0.03125 C 15.289062 -0.113281 15.191406 -0.398438 15.203125 -0.828125 C 15.242188 -1.085938 15.265625 -1.347656 15.265625 -1.609375 C 15.265625 -1.867188 15.265625 -2.128906 15.265625 -2.390625 C 15.265625 -2.960938 15.238281 -3.53125 15.1875 -4.09375 C 15.144531 -4.65625 15.070312 -5.207031 14.96875 -5.75 C 14.800781 -5.75 14.613281 -5.75 14.40625 -5.75 C 14.195312 -5.75 14 -5.75 13.8125 -5.75 C 12.851562 -5.75 11.835938 -5.753906 10.765625 -5.765625 C 9.691406 -5.785156 8.640625 -5.8125 7.609375 -5.84375 C 6.585938 -5.882812 5.664062 -5.929688 4.84375 -5.984375 C 4.351562 -4.285156 4.019531 -2.535156 3.84375 -0.734375 C 3.832031 -0.347656 3.75 -0.0820312 3.59375 0.0625 C 3.445312 0.207031 3.203125 0.28125 2.859375 0.28125 Z M 5.453125 -8.09375 C 6.691406 -8.019531 8.023438 -7.960938 9.453125 -7.921875 C 10.878906 -7.878906 12.21875 -7.859375 13.46875 -7.859375 C 13.65625 -7.859375 13.832031 -7.859375 14 -7.859375 C 14.164062 -7.859375 14.335938 -7.859375 14.515625 -7.859375 C 14.054688 -9.453125 13.410156 -10.941406 12.578125 -12.328125 C 11.753906 -13.710938 10.773438 -14.957031 9.640625 -16.0625 C 8.847656 -15.0625 8.09375 -13.878906 7.375 -12.515625 C 6.65625 -11.160156 6.015625 -9.6875 5.453125 -8.09375 Z M 5.453125 -8.09375 "/></g></g></g><g fill="#0991ff" fill-opacity="1"><g transform="translate(304.248448, 215.599992)"><g><path d="M 3.484375 0.265625 C 3.117188 0.265625 2.863281 0.1875 2.71875 0.03125 C 2.582031 -0.113281 2.507812 -0.347656 2.5 -0.671875 C 2.375 -1.921875 2.269531 -3.242188 2.1875 -4.640625 C 2.113281 -6.035156 2.078125 -7.460938 2.078125 -8.921875 C 2.078125 -11.304688 2.113281 -13.285156 2.1875 -14.859375 C 2.269531 -16.429688 2.351562 -17.757812 2.4375 -18.84375 C 2.476562 -19.195312 2.570312 -19.429688 2.71875 -19.546875 C 2.863281 -19.671875 3.109375 -19.734375 3.453125 -19.734375 C 3.960938 -19.734375 4.300781 -19.660156 4.46875 -19.515625 C 4.644531 -19.367188 4.71875 -19.113281 4.6875 -18.75 C 4.613281 -17.601562 4.535156 -16.234375 4.453125 -14.640625 C 4.378906 -13.054688 4.34375 -11.148438 4.34375 -8.921875 C 4.34375 -7.179688 4.375 -5.695312 4.4375 -4.46875 C 4.507812 -3.238281 4.617188 -2.0625 4.765625 -0.9375 C 4.796875 -0.445312 4.710938 -0.125 4.515625 0.03125 C 4.316406 0.1875 3.972656 0.265625 3.484375 0.265625 Z M 3.484375 0.265625 "/></g></g></g><g fill="#0991ff" fill-opacity="1"><g transform="translate(311.188374, 215.599992)"><g><path d="M 3.4375 6.765625 C 2.820312 6.765625 2.441406 6.679688 2.296875 6.515625 C 2.148438 6.347656 2.085938 6.109375 2.109375 5.796875 C 2.117188 5.609375 2.140625 5.175781 2.171875 4.5 C 2.210938 3.820312 2.253906 3.007812 2.296875 2.0625 C 2.335938 1.125 2.367188 0.15625 2.390625 -0.84375 C 2.421875 -1.84375 2.4375 -2.757812 2.4375 -3.59375 C 2.4375 -5.238281 2.429688 -6.804688 2.421875 -8.296875 C 2.421875 -9.785156 2.398438 -11.054688 2.359375 -12.109375 C 2.347656 -12.597656 2.445312 -12.90625 2.65625 -13.03125 C 2.875 -13.164062 3.210938 -13.234375 3.671875 -13.234375 C 3.984375 -13.234375 4.210938 -13.171875 4.359375 -13.046875 C 4.503906 -12.929688 4.59375 -12.722656 4.625 -12.421875 C 4.675781 -11.835938 4.703125 -11.078125 4.703125 -10.140625 C 5.253906 -11.160156 5.972656 -11.9375 6.859375 -12.46875 C 7.742188 -13 8.71875 -13.265625 9.78125 -13.265625 C 11.019531 -13.265625 12.113281 -13.019531 13.0625 -12.53125 C 14.007812 -12.039062 14.742188 -11.289062 15.265625 -10.28125 C 15.796875 -9.269531 16.0625 -7.957031 16.0625 -6.34375 C 16.0625 -5.039062 15.8125 -3.894531 15.3125 -2.90625 C 14.8125 -1.925781 14.078125 -1.148438 13.109375 -0.578125 C 12.148438 -0.015625 10.96875 0.265625 9.5625 0.265625 C 8.457031 0.265625 7.492188 0.0546875 6.671875 -0.359375 C 5.859375 -0.773438 5.195312 -1.359375 4.6875 -2.109375 C 4.664062 -1.347656 4.640625 -0.539062 4.609375 0.3125 C 4.585938 1.175781 4.5625 2 4.53125 2.78125 C 4.507812 3.5625 4.484375 4.222656 4.453125 4.765625 C 4.429688 5.316406 4.410156 5.660156 4.390625 5.796875 C 4.335938 6.128906 4.242188 6.375 4.109375 6.53125 C 3.984375 6.6875 3.757812 6.765625 3.4375 6.765625 Z M 4.78125 -5.4375 C 5.144531 -4.320312 5.679688 -3.425781 6.390625 -2.75 C 7.109375 -2.070312 8.070312 -1.734375 9.28125 -1.734375 C 10.71875 -1.734375 11.832031 -2.171875 12.625 -3.046875 C 13.414062 -3.929688 13.8125 -5.03125 13.8125 -6.34375 C 13.8125 -8.070312 13.421875 -9.3125 12.640625 -10.0625 C 11.859375 -10.820312 10.832031 -11.203125 9.5625 -11.203125 C 8.351562 -11.203125 7.3125 -10.695312 6.4375 -9.6875 C 5.5625 -8.6875 5.007812 -7.269531 4.78125 -5.4375 Z M 4.78125 -5.4375 "/></g></g></g><g fill="#0991ff" fill-opacity="1"><g transform="translate(328.629146, 215.599992)"><g><path d="M 3.28125 0.265625 C 2.820312 0.265625 2.503906 0.203125 2.328125 0.078125 C 2.160156 -0.046875 2.078125 -0.265625 2.078125 -0.578125 C 2.078125 -1.046875 2.085938 -1.660156 2.109375 -2.421875 C 2.140625 -3.179688 2.171875 -4.003906 2.203125 -4.890625 C 2.242188 -5.785156 2.273438 -6.675781 2.296875 -7.5625 C 2.328125 -8.445312 2.34375 -9.238281 2.34375 -9.9375 C 2.34375 -10.613281 2.34375 -11.363281 2.34375 -12.1875 C 2.34375 -13.019531 2.332031 -13.859375 2.3125 -14.703125 C 2.289062 -15.546875 2.273438 -16.320312 2.265625 -17.03125 C 2.265625 -17.738281 2.242188 -18.3125 2.203125 -18.75 C 2.191406 -19.144531 2.289062 -19.410156 2.5 -19.546875 C 2.707031 -19.691406 3.019531 -19.765625 3.4375 -19.765625 C 3.832031 -19.765625 4.097656 -19.691406 4.234375 -19.546875 C 4.378906 -19.410156 4.457031 -19.195312 4.46875 -18.90625 C 4.507812 -18.289062 4.535156 -17.503906 4.546875 -16.546875 C 4.566406 -15.585938 4.582031 -14.566406 4.59375 -13.484375 C 4.613281 -12.410156 4.625 -11.390625 4.625 -10.421875 C 5.664062 -12.316406 7.296875 -13.265625 9.515625 -13.265625 C 10.816406 -13.265625 11.859375 -13.019531 12.640625 -12.53125 C 13.429688 -12.039062 14.015625 -11.363281 14.390625 -10.5 C 14.765625 -9.632812 14.96875 -8.625 15 -7.46875 C 15.019531 -7.289062 15.03125 -7.117188 15.03125 -6.953125 C 15.03125 -6.785156 15.03125 -6.617188 15.03125 -6.453125 C 15.03125 -5.460938 14.96875 -4.4375 14.84375 -3.375 C 14.71875 -2.320312 14.5625 -1.316406 14.375 -0.359375 C 14.320312 -0.140625 14.21875 0.015625 14.0625 0.109375 C 13.90625 0.210938 13.722656 0.265625 13.515625 0.265625 C 13.453125 0.265625 13.390625 0.265625 13.328125 0.265625 C 13.265625 0.265625 13.191406 0.253906 13.109375 0.234375 C 12.703125 0.160156 12.429688 0.046875 12.296875 -0.109375 C 12.171875 -0.273438 12.128906 -0.488281 12.171875 -0.75 C 12.359375 -1.757812 12.503906 -2.832031 12.609375 -3.96875 C 12.710938 -5.113281 12.765625 -6.140625 12.765625 -7.046875 C 12.765625 -8.359375 12.46875 -9.382812 11.875 -10.125 C 11.289062 -10.863281 10.382812 -11.234375 9.15625 -11.234375 C 8.375 -11.234375 7.640625 -11.03125 6.953125 -10.625 C 6.265625 -10.226562 5.703125 -9.546875 5.265625 -8.578125 C 4.835938 -7.609375 4.59375 -6.273438 4.53125 -4.578125 C 4.507812 -4.179688 4.488281 -3.6875 4.46875 -3.09375 C 4.457031 -2.5 4.4375 -1.941406 4.40625 -1.421875 C 4.382812 -0.910156 4.351562 -0.539062 4.3125 -0.3125 C 4.28125 -0.125 4.1875 0.015625 4.03125 0.109375 C 3.875 0.210938 3.625 0.265625 3.28125 0.265625 Z M 4.625 -10.015625 L 4.625 -10.03125 C 4.625 -10.03125 4.625 -10.023438 4.625 -10.015625 Z M 4.625 -10.015625 "/></g></g></g><g fill="#0991ff" fill-opacity="1"><g transform="translate(345.758009, 215.599992)"><g><path d="M 6.15625 0.265625 C 4.582031 0.265625 3.335938 -0.113281 2.421875 -0.875 C 1.515625 -1.644531 1.0625 -2.679688 1.0625 -3.984375 C 1.0625 -5.265625 1.53125 -6.296875 2.46875 -7.078125 C 3.40625 -7.867188 4.789062 -8.265625 6.625 -8.265625 C 7.695312 -8.265625 8.660156 -8.046875 9.515625 -7.609375 C 10.378906 -7.179688 11.082031 -6.664062 11.625 -6.0625 L 11.625 -8.21875 C 11.625 -9.1875 11.257812 -9.9375 10.53125 -10.46875 C 9.800781 -11.007812 8.769531 -11.28125 7.4375 -11.28125 C 6.6875 -11.28125 6.007812 -11.191406 5.40625 -11.015625 C 4.800781 -10.847656 4.210938 -10.625 3.640625 -10.34375 C 3.410156 -10.257812 3.21875 -10.21875 3.0625 -10.21875 C 2.75 -10.21875 2.472656 -10.453125 2.234375 -10.921875 C 2.179688 -11.003906 2.144531 -11.09375 2.125 -11.1875 C 2.113281 -11.289062 2.109375 -11.375 2.109375 -11.4375 C 2.109375 -11.71875 2.253906 -11.941406 2.546875 -12.109375 C 3.171875 -12.472656 3.910156 -12.753906 4.765625 -12.953125 C 5.628906 -13.160156 6.582031 -13.265625 7.625 -13.265625 C 9.582031 -13.265625 11.125 -12.828125 12.25 -11.953125 C 13.375 -11.085938 13.9375 -9.832031 13.9375 -8.1875 C 13.9375 -7.664062 13.925781 -7.1875 13.90625 -6.75 C 13.894531 -6.320312 13.875 -5.875 13.84375 -5.40625 C 13.820312 -4.9375 13.8125 -4.390625 13.8125 -3.765625 C 13.8125 -3.492188 13.851562 -3.179688 13.9375 -2.828125 C 14.019531 -2.484375 14.125 -2.15625 14.25 -1.84375 C 14.382812 -1.53125 14.515625 -1.289062 14.640625 -1.125 C 14.703125 -0.976562 14.734375 -0.835938 14.734375 -0.703125 C 14.734375 -0.390625 14.484375 -0.128906 13.984375 0.078125 C 13.765625 0.179688 13.539062 0.234375 13.3125 0.234375 C 12.875 0.234375 12.613281 0.0390625 12.53125 -0.34375 C 12.34375 -0.664062 12.1875 -0.972656 12.0625 -1.265625 C 11.9375 -1.566406 11.832031 -1.914062 11.75 -2.3125 C 11.164062 -1.519531 10.414062 -0.890625 9.5 -0.421875 C 8.59375 0.0351562 7.476562 0.265625 6.15625 0.265625 Z M 3.359375 -4.109375 C 3.359375 -3.328125 3.660156 -2.734375 4.265625 -2.328125 C 4.867188 -1.921875 5.675781 -1.71875 6.6875 -1.71875 C 7.632812 -1.71875 8.476562 -1.890625 9.21875 -2.234375 C 9.96875 -2.578125 10.675781 -3.148438 11.34375 -3.953125 C 11.007812 -4.660156 10.429688 -5.257812 9.609375 -5.75 C 8.785156 -6.25 7.835938 -6.5 6.765625 -6.5 C 5.597656 -6.5 4.738281 -6.269531 4.1875 -5.8125 C 3.632812 -5.363281 3.359375 -4.796875 3.359375 -4.109375 Z M 3.359375 -4.109375 "/></g></g></g><g fill="#0991ff" fill-opacity="1"><g transform="translate(361.587269, 215.599992)"><g><path d="M 8.734375 0.265625 C 7.367188 0.265625 6.144531 0.203125 5.0625 0.078125 C 3.988281 -0.046875 3.164062 -0.203125 2.59375 -0.390625 C 2.320312 -0.492188 2.132812 -0.644531 2.03125 -0.84375 C 1.9375 -1.039062 1.890625 -1.28125 1.890625 -1.5625 C 1.878906 -1.90625 1.875 -2.257812 1.875 -2.625 C 1.875 -2.988281 1.875 -3.34375 1.875 -3.6875 C 1.875 -5.875 1.953125 -8.003906 2.109375 -10.078125 C 2.265625 -12.160156 2.503906 -14.078125 2.828125 -15.828125 C 2.710938 -15.816406 2.59375 -15.789062 2.46875 -15.75 C 2.34375 -15.71875 2.210938 -15.6875 2.078125 -15.65625 C 2.003906 -15.632812 1.9375 -15.617188 1.875 -15.609375 C 1.820312 -15.597656 1.757812 -15.59375 1.6875 -15.59375 C 1.257812 -15.59375 0.972656 -15.863281 0.828125 -16.40625 C 0.773438 -16.613281 0.75 -16.796875 0.75 -16.953125 C 0.75 -17.421875 0.976562 -17.71875 1.4375 -17.84375 C 2.332031 -18.0625 3.269531 -18.21875 4.25 -18.3125 C 5.226562 -18.40625 6.195312 -18.453125 7.15625 -18.453125 C 9.488281 -18.453125 11.300781 -18 12.59375 -17.09375 C 13.882812 -16.195312 14.53125 -14.84375 14.53125 -13.03125 C 14.53125 -12.382812 14.40625 -11.757812 14.15625 -11.15625 C 13.90625 -10.5625 13.503906 -10.039062 12.953125 -9.59375 C 15.648438 -9.019531 17 -7.546875 17 -5.171875 C 17 -4.066406 16.726562 -3.101562 16.1875 -2.28125 C 15.65625 -1.46875 14.78125 -0.835938 13.5625 -0.390625 C 12.351562 0.046875 10.742188 0.265625 8.734375 0.265625 Z M 4.1875 -2.34375 C 4.6875 -2.238281 5.351562 -2.132812 6.1875 -2.03125 C 7.019531 -1.925781 7.90625 -1.875 8.84375 -1.875 C 10.863281 -1.875 12.328125 -2.179688 13.234375 -2.796875 C 14.148438 -3.410156 14.609375 -4.28125 14.609375 -5.40625 C 14.609375 -6.425781 14.175781 -7.164062 13.3125 -7.625 C 12.445312 -8.082031 11.269531 -8.3125 9.78125 -8.3125 C 8.945312 -8.3125 8.015625 -8.285156 6.984375 -8.234375 C 5.960938 -8.179688 5.070312 -8.125 4.3125 -8.0625 C 4.28125 -7.226562 4.25 -6.410156 4.21875 -5.609375 C 4.195312 -4.816406 4.1875 -4.039062 4.1875 -3.28125 C 4.1875 -3.125 4.1875 -2.96875 4.1875 -2.8125 C 4.1875 -2.65625 4.1875 -2.5 4.1875 -2.34375 Z M 4.46875 -9.953125 C 5.019531 -9.992188 5.65625 -10.035156 6.375 -10.078125 C 7.101562 -10.117188 7.835938 -10.148438 8.578125 -10.171875 C 9.804688 -10.203125 10.710938 -10.503906 11.296875 -11.078125 C 11.878906 -11.660156 12.171875 -12.328125 12.171875 -13.078125 C 12.171875 -14.253906 11.722656 -15.085938 10.828125 -15.578125 C 9.929688 -16.078125 8.785156 -16.328125 7.390625 -16.328125 C 7.003906 -16.328125 6.632812 -16.316406 6.28125 -16.296875 C 5.925781 -16.285156 5.570312 -16.257812 5.21875 -16.21875 C 5.257812 -16.082031 5.257812 -15.910156 5.21875 -15.703125 C 5.050781 -14.785156 4.90625 -13.835938 4.78125 -12.859375 C 4.664062 -11.890625 4.5625 -10.921875 4.46875 -9.953125 Z M 4.46875 -9.953125 "/></g></g></g><g fill="#0991ff" fill-opacity="1"><g transform="translate(379.573878, 215.599992)"><g><path d="M 2.28125 6.65625 C 2.144531 6.726562 2 6.765625 1.84375 6.765625 C 1.46875 6.765625 1.164062 6.535156 0.9375 6.078125 C 0.78125 5.785156 0.703125 5.535156 0.703125 5.328125 C 0.703125 5.035156 0.867188 4.8125 1.203125 4.65625 C 2.429688 4.0625 3.570312 3.390625 4.625 2.640625 C 5.6875 1.890625 6.640625 1.0625 7.484375 0.15625 C 5.390625 -0.96875 3.863281 -2.546875 2.90625 -4.578125 C 1.957031 -6.617188 1.484375 -8.929688 1.484375 -11.515625 C 1.484375 -11.648438 1.488281 -11.789062 1.5 -11.9375 C 1.507812 -12.09375 1.515625 -12.238281 1.515625 -12.375 C 1.515625 -12.664062 1.613281 -12.882812 1.8125 -13.03125 C 2.019531 -13.1875 2.289062 -13.265625 2.625 -13.265625 C 2.96875 -13.265625 3.25 -13.191406 3.46875 -13.046875 C 3.6875 -12.910156 3.796875 -12.703125 3.796875 -12.421875 C 3.773438 -12.253906 3.765625 -12.09375 3.765625 -11.9375 C 3.765625 -11.78125 3.765625 -11.625 3.765625 -11.46875 C 3.765625 -9.175781 4.179688 -7.175781 5.015625 -5.46875 C 5.847656 -3.757812 7.15625 -2.472656 8.9375 -1.609375 C 10.019531 -3.097656 10.835938 -4.753906 11.390625 -6.578125 C 11.941406 -8.398438 12.226562 -10.382812 12.25 -12.53125 C 12.25 -12.789062 12.359375 -12.984375 12.578125 -13.109375 C 12.804688 -13.242188 13.066406 -13.296875 13.359375 -13.265625 C 14.140625 -13.191406 14.53125 -12.921875 14.53125 -12.453125 C 14.53125 -9.347656 14.015625 -6.59375 12.984375 -4.1875 C 11.953125 -1.78125 10.515625 0.3125 8.671875 2.09375 C 6.835938 3.882812 4.707031 5.40625 2.28125 6.65625 Z M 2.28125 6.65625 "/></g></g></g><g fill="#0991ff" fill-opacity="1"><g transform="translate(395.533097, 215.599992)"><g><path d="M 7.046875 0.265625 C 5.722656 0.265625 4.660156 -0.101562 3.859375 -0.84375 C 3.054688 -1.582031 2.65625 -2.734375 2.65625 -4.296875 C 2.65625 -5.265625 2.664062 -6.320312 2.6875 -7.46875 C 2.71875 -8.625 2.75 -9.789062 2.78125 -10.96875 L 1.28125 -10.96875 C 0.601562 -10.96875 0.265625 -11.316406 0.265625 -12.015625 C 0.265625 -12.378906 0.34375 -12.632812 0.5 -12.78125 C 0.65625 -12.925781 0.929688 -13 1.328125 -13 L 2.828125 -13 C 2.867188 -13.601562 2.898438 -14.1875 2.921875 -14.75 C 2.953125 -15.3125 2.972656 -15.851562 2.984375 -16.375 C 3.023438 -16.675781 3.117188 -16.878906 3.265625 -16.984375 C 3.410156 -17.085938 3.613281 -17.140625 3.875 -17.140625 C 4.394531 -17.140625 4.757812 -17.070312 4.96875 -16.9375 C 5.1875 -16.8125 5.28125 -16.546875 5.25 -16.140625 C 5.226562 -15.660156 5.203125 -15.15625 5.171875 -14.625 C 5.148438 -14.09375 5.132812 -13.539062 5.125 -12.96875 L 9.234375 -12.953125 C 9.859375 -12.953125 10.171875 -12.617188 10.171875 -11.953125 C 10.171875 -11.628906 10.101562 -11.378906 9.96875 -11.203125 C 9.84375 -11.035156 9.601562 -10.953125 9.25 -10.953125 L 5.046875 -10.96875 C 5.023438 -9.820312 5 -8.691406 4.96875 -7.578125 C 4.945312 -6.460938 4.9375 -5.425781 4.9375 -4.46875 C 4.9375 -3.570312 5.175781 -2.898438 5.65625 -2.453125 C 6.144531 -2.015625 6.726562 -1.796875 7.40625 -1.796875 C 7.769531 -1.796875 8.125 -1.84375 8.46875 -1.9375 C 8.820312 -2.03125 9.210938 -2.269531 9.640625 -2.65625 C 9.742188 -2.707031 9.847656 -2.734375 9.953125 -2.734375 C 10.234375 -2.734375 10.492188 -2.523438 10.734375 -2.109375 C 10.835938 -1.929688 10.890625 -1.757812 10.890625 -1.59375 C 10.890625 -1.289062 10.707031 -1.046875 10.34375 -0.859375 C 9.84375 -0.410156 9.34375 -0.113281 8.84375 0.03125 C 8.34375 0.1875 7.742188 0.265625 7.046875 0.265625 Z M 7.046875 0.265625 "/></g></g></g><g fill="#0991ff" fill-opacity="1"><g transform="translate(406.657761, 215.599992)"><g><path d="M 8.015625 0.265625 C 5.804688 0.265625 4.148438 -0.335938 3.046875 -1.546875 C 1.953125 -2.765625 1.40625 -4.425781 1.40625 -6.53125 C 1.40625 -7.863281 1.644531 -9.03125 2.125 -10.03125 C 2.613281 -11.039062 3.347656 -11.832031 4.328125 -12.40625 C 5.304688 -12.976562 6.523438 -13.265625 7.984375 -13.265625 C 9.921875 -13.265625 11.367188 -12.847656 12.328125 -12.015625 C 13.296875 -11.179688 13.78125 -10.128906 13.78125 -8.859375 C 13.78125 -7.597656 13.359375 -6.585938 12.515625 -5.828125 C 11.679688 -5.066406 10.421875 -4.6875 8.734375 -4.6875 C 7.679688 -4.6875 6.738281 -4.816406 5.90625 -5.078125 C 5.070312 -5.347656 4.328125 -5.726562 3.671875 -6.21875 C 3.734375 -4.78125 4.179688 -3.671875 5.015625 -2.890625 C 5.847656 -2.109375 7.023438 -1.71875 8.546875 -1.71875 C 9.378906 -1.71875 10.050781 -1.8125 10.5625 -2 C 11.082031 -2.1875 11.632812 -2.460938 12.21875 -2.828125 C 12.34375 -2.898438 12.472656 -2.9375 12.609375 -2.9375 C 12.742188 -2.9375 12.875 -2.890625 13 -2.796875 C 13.132812 -2.710938 13.265625 -2.566406 13.390625 -2.359375 C 13.492188 -2.148438 13.546875 -1.96875 13.546875 -1.8125 C 13.546875 -1.507812 13.363281 -1.257812 13 -1.0625 C 12.34375 -0.644531 11.628906 -0.316406 10.859375 -0.078125 C 10.085938 0.148438 9.140625 0.265625 8.015625 0.265625 Z M 3.875 -8.234375 C 4.476562 -7.773438 5.132812 -7.40625 5.84375 -7.125 C 6.5625 -6.84375 7.367188 -6.703125 8.265625 -6.703125 C 9.328125 -6.703125 10.132812 -6.894531 10.6875 -7.28125 C 11.238281 -7.664062 11.515625 -8.160156 11.515625 -8.765625 C 11.515625 -9.472656 11.238281 -10.066406 10.6875 -10.546875 C 10.132812 -11.035156 9.285156 -11.28125 8.140625 -11.28125 C 7.023438 -11.28125 6.101562 -11.003906 5.375 -10.453125 C 4.65625 -9.910156 4.15625 -9.171875 3.875 -8.234375 Z M 3.875 -8.234375 "/></g></g></g><g fill="#0991ff" fill-opacity="1"><g transform="translate(421.811225, 215.599992)"><g/></g></g><g fill="#0991ff" fill-opacity="1"><g transform="translate(429.478926, 215.599992)"><g><path d="M 8.1875 0.265625 C 7.03125 0.265625 6.03125 0.195312 5.1875 0.0625 C 4.34375 -0.0625 3.601562 -0.242188 2.96875 -0.484375 C 2.34375 -0.734375 1.742188 -1.023438 1.171875 -1.359375 C 0.828125 -1.597656 0.65625 -1.851562 0.65625 -2.125 C 0.65625 -2.21875 0.671875 -2.304688 0.703125 -2.390625 C 0.734375 -2.472656 0.773438 -2.5625 0.828125 -2.65625 C 1.160156 -3.132812 1.472656 -3.375 1.765625 -3.375 C 1.890625 -3.375 2.007812 -3.34375 2.125 -3.28125 C 2.695312 -3 3.28125 -2.75 3.875 -2.53125 C 4.476562 -2.3125 5.160156 -2.144531 5.921875 -2.03125 C 6.691406 -1.925781 7.59375 -1.875 8.625 -1.875 C 9.375 -1.875 10.050781 -1.960938 10.65625 -2.140625 C 11.257812 -2.328125 11.742188 -2.632812 12.109375 -3.0625 C 12.472656 -3.5 12.65625 -4.082031 12.65625 -4.8125 C 12.65625 -5.539062 12.269531 -6.203125 11.5 -6.796875 C 10.726562 -7.398438 9.488281 -7.96875 7.78125 -8.5 C 6.070312 -9.039062 4.765625 -9.570312 3.859375 -10.09375 C 2.953125 -10.625 2.332031 -11.207031 2 -11.84375 C 1.675781 -12.476562 1.515625 -13.203125 1.515625 -14.015625 C 1.515625 -15.421875 2.050781 -16.507812 3.125 -17.28125 C 4.195312 -18.0625 5.945312 -18.453125 8.375 -18.453125 C 9.363281 -18.453125 10.195312 -18.40625 10.875 -18.3125 C 11.5625 -18.21875 12.164062 -18.09375 12.6875 -17.9375 C 13.207031 -17.78125 13.703125 -17.597656 14.171875 -17.390625 C 14.328125 -17.328125 14.453125 -17.238281 14.546875 -17.125 C 14.640625 -17.007812 14.6875 -16.863281 14.6875 -16.6875 C 14.6875 -16.570312 14.644531 -16.382812 14.5625 -16.125 C 14.382812 -15.65625 14.125 -15.421875 13.78125 -15.421875 C 13.644531 -15.421875 13.445312 -15.460938 13.1875 -15.546875 C 12.488281 -15.785156 11.738281 -15.972656 10.9375 -16.109375 C 10.144531 -16.253906 9.210938 -16.328125 8.140625 -16.328125 C 6.609375 -16.328125 5.519531 -16.125 4.875 -15.71875 C 4.226562 -15.3125 3.90625 -14.71875 3.90625 -13.9375 C 3.90625 -13.238281 4.253906 -12.625 4.953125 -12.09375 C 5.648438 -11.570312 6.894531 -11.035156 8.6875 -10.484375 C 10.351562 -9.972656 11.648438 -9.4375 12.578125 -8.875 C 13.503906 -8.3125 14.148438 -7.703125 14.515625 -7.046875 C 14.890625 -6.390625 15.078125 -5.671875 15.078125 -4.890625 C 15.078125 -3.242188 14.507812 -1.972656 13.375 -1.078125 C 12.238281 -0.179688 10.507812 0.265625 8.1875 0.265625 Z M 8.1875 0.265625 "/></g></g></g><g fill="#0991ff" fill-opacity="1"><g transform="translate(445.776043, 215.599992)"><g><path d="M 2.28125 6.65625 C 2.144531 6.726562 2 6.765625 1.84375 6.765625 C 1.46875 6.765625 1.164062 6.535156 0.9375 6.078125 C 0.78125 5.785156 0.703125 5.535156 0.703125 5.328125 C 0.703125 5.035156 0.867188 4.8125 1.203125 4.65625 C 2.429688 4.0625 3.570312 3.390625 4.625 2.640625 C 5.6875 1.890625 6.640625 1.0625 7.484375 0.15625 C 5.390625 -0.96875 3.863281 -2.546875 2.90625 -4.578125 C 1.957031 -6.617188 1.484375 -8.929688 1.484375 -11.515625 C 1.484375 -11.648438 1.488281 -11.789062 1.5 -11.9375 C 1.507812 -12.09375 1.515625 -12.238281 1.515625 -12.375 C 1.515625 -12.664062 1.613281 -12.882812 1.8125 -13.03125 C 2.019531 -13.1875 2.289062 -13.265625 2.625 -13.265625 C 2.96875 -13.265625 3.25 -13.191406 3.46875 -13.046875 C 3.6875 -12.910156 3.796875 -12.703125 3.796875 -12.421875 C 3.773438 -12.253906 3.765625 -12.09375 3.765625 -11.9375 C 3.765625 -11.78125 3.765625 -11.625 3.765625 -11.46875 C 3.765625 -9.175781 4.179688 -7.175781 5.015625 -5.46875 C 5.847656 -3.757812 7.15625 -2.472656 8.9375 -1.609375 C 10.019531 -3.097656 10.835938 -4.753906 11.390625 -6.578125 C 11.941406 -8.398438 12.226562 -10.382812 12.25 -12.53125 C 12.25 -12.789062 12.359375 -12.984375 12.578125 -13.109375 C 12.804688 -13.242188 13.066406 -13.296875 13.359375 -13.265625 C 14.140625 -13.191406 14.53125 -12.921875 14.53125 -12.453125 C 14.53125 -9.347656 14.015625 -6.59375 12.984375 -4.1875 C 11.953125 -1.78125 10.515625 0.3125 8.671875 2.09375 C 6.835938 3.882812 4.707031 5.40625 2.28125 6.65625 Z M 2.28125 6.65625 "/></g></g></g><g fill="#0991ff" fill-opacity="1"><g transform="translate(461.735263, 215.599992)"><g><path d="M 6.453125 0.265625 C 5.441406 0.265625 4.566406 0.1875 3.828125 0.03125 C 3.097656 -0.125 2.398438 -0.359375 1.734375 -0.671875 C 1.617188 -0.742188 1.515625 -0.835938 1.421875 -0.953125 C 1.328125 -1.066406 1.28125 -1.207031 1.28125 -1.375 C 1.28125 -1.519531 1.320312 -1.703125 1.40625 -1.921875 C 1.53125 -2.203125 1.664062 -2.394531 1.8125 -2.5 C 1.957031 -2.613281 2.113281 -2.671875 2.28125 -2.671875 C 2.40625 -2.671875 2.53125 -2.644531 2.65625 -2.59375 C 3.34375 -2.320312 4.003906 -2.109375 4.640625 -1.953125 C 5.285156 -1.796875 5.984375 -1.71875 6.734375 -1.71875 C 7.960938 -1.71875 8.828125 -1.863281 9.328125 -2.15625 C 9.835938 -2.445312 10.09375 -2.914062 10.09375 -3.5625 C 10.09375 -3.875 10.007812 -4.160156 9.84375 -4.421875 C 9.675781 -4.679688 9.367188 -4.910156 8.921875 -5.109375 C 8.484375 -5.304688 7.832031 -5.457031 6.96875 -5.5625 C 5.320312 -5.75 4.082031 -6.140625 3.25 -6.734375 C 2.414062 -7.335938 2 -8.273438 2 -9.546875 C 2 -10.804688 2.414062 -11.738281 3.25 -12.34375 C 4.082031 -12.957031 5.257812 -13.265625 6.78125 -13.265625 C 7.957031 -13.265625 8.9375 -13.132812 9.71875 -12.875 C 10.5 -12.625 11.160156 -12.3125 11.703125 -11.9375 C 11.960938 -11.78125 12.09375 -11.582031 12.09375 -11.34375 C 12.09375 -11.144531 12.015625 -10.914062 11.859375 -10.65625 C 11.609375 -10.28125 11.332031 -10.09375 11.03125 -10.09375 C 10.882812 -10.09375 10.726562 -10.132812 10.5625 -10.21875 C 9.601562 -10.914062 8.363281 -11.265625 6.84375 -11.265625 C 5.144531 -11.265625 4.296875 -10.691406 4.296875 -9.546875 C 4.296875 -8.898438 4.578125 -8.429688 5.140625 -8.140625 C 5.703125 -7.847656 6.585938 -7.628906 7.796875 -7.484375 C 9.023438 -7.328125 9.960938 -7.066406 10.609375 -6.703125 C 11.265625 -6.335938 11.71875 -5.890625 11.96875 -5.359375 C 12.21875 -4.835938 12.34375 -4.226562 12.34375 -3.53125 C 12.34375 -2.375 11.898438 -1.453125 11.015625 -0.765625 C 10.140625 -0.078125 8.617188 0.265625 6.453125 0.265625 Z M 6.453125 0.265625 "/></g></g></g><g fill="#0991ff" fill-opacity="1"><g transform="translate(475.563124, 215.599992)"><g><path d="M 7.046875 0.265625 C 5.722656 0.265625 4.660156 -0.101562 3.859375 -0.84375 C 3.054688 -1.582031 2.65625 -2.734375 2.65625 -4.296875 C 2.65625 -5.265625 2.664062 -6.320312 2.6875 -7.46875 C 2.71875 -8.625 2.75 -9.789062 2.78125 -10.96875 L 1.28125 -10.96875 C 0.601562 -10.96875 0.265625 -11.316406 0.265625 -12.015625 C 0.265625 -12.378906 0.34375 -12.632812 0.5 -12.78125 C 0.65625 -12.925781 0.929688 -13 1.328125 -13 L 2.828125 -13 C 2.867188 -13.601562 2.898438 -14.1875 2.921875 -14.75 C 2.953125 -15.3125 2.972656 -15.851562 2.984375 -16.375 C 3.023438 -16.675781 3.117188 -16.878906 3.265625 -16.984375 C 3.410156 -17.085938 3.613281 -17.140625 3.875 -17.140625 C 4.394531 -17.140625 4.757812 -17.070312 4.96875 -16.9375 C 5.1875 -16.8125 5.28125 -16.546875 5.25 -16.140625 C 5.226562 -15.660156 5.203125 -15.15625 5.171875 -14.625 C 5.148438 -14.09375 5.132812 -13.539062 5.125 -12.96875 L 9.234375 -12.953125 C 9.859375 -12.953125 10.171875 -12.617188 10.171875 -11.953125 C 10.171875 -11.628906 10.101562 -11.378906 9.96875 -11.203125 C 9.84375 -11.035156 9.601562 -10.953125 9.25 -10.953125 L 5.046875 -10.96875 C 5.023438 -9.820312 5 -8.691406 4.96875 -7.578125 C 4.945312 -6.460938 4.9375 -5.425781 4.9375 -4.46875 C 4.9375 -3.570312 5.175781 -2.898438 5.65625 -2.453125 C 6.144531 -2.015625 6.726562 -1.796875 7.40625 -1.796875 C 7.769531 -1.796875 8.125 -1.84375 8.46875 -1.9375 C 8.820312 -2.03125 9.210938 -2.269531 9.640625 -2.65625 C 9.742188 -2.707031 9.847656 -2.734375 9.953125 -2.734375 C 10.234375 -2.734375 10.492188 -2.523438 10.734375 -2.109375 C 10.835938 -1.929688 10.890625 -1.757812 10.890625 -1.59375 C 10.890625 -1.289062 10.707031 -1.046875 10.34375 -0.859375 C 9.84375 -0.410156 9.34375 -0.113281 8.84375 0.03125 C 8.34375 0.1875 7.742188 0.265625 7.046875 0.265625 Z M 7.046875 0.265625 "/></g></g></g><g fill="#0991ff" fill-opacity="1"><g transform="translate(486.687799, 215.599992)"><g><path d="M 8.015625 0.265625 C 5.804688 0.265625 4.148438 -0.335938 3.046875 -1.546875 C 1.953125 -2.765625 1.40625 -4.425781 1.40625 -6.53125 C 1.40625 -7.863281 1.644531 -9.03125 2.125 -10.03125 C 2.613281 -11.039062 3.347656 -11.832031 4.328125 -12.40625 C 5.304688 -12.976562 6.523438 -13.265625 7.984375 -13.265625 C 9.921875 -13.265625 11.367188 -12.847656 12.328125 -12.015625 C 13.296875 -11.179688 13.78125 -10.128906 13.78125 -8.859375 C 13.78125 -7.597656 13.359375 -6.585938 12.515625 -5.828125 C 11.679688 -5.066406 10.421875 -4.6875 8.734375 -4.6875 C 7.679688 -4.6875 6.738281 -4.816406 5.90625 -5.078125 C 5.070312 -5.347656 4.328125 -5.726562 3.671875 -6.21875 C 3.734375 -4.78125 4.179688 -3.671875 5.015625 -2.890625 C 5.847656 -2.109375 7.023438 -1.71875 8.546875 -1.71875 C 9.378906 -1.71875 10.050781 -1.8125 10.5625 -2 C 11.082031 -2.1875 11.632812 -2.460938 12.21875 -2.828125 C 12.34375 -2.898438 12.472656 -2.9375 12.609375 -2.9375 C 12.742188 -2.9375 12.875 -2.890625 13 -2.796875 C 13.132812 -2.710938 13.265625 -2.566406 13.390625 -2.359375 C 13.492188 -2.148438 13.546875 -1.96875 13.546875 -1.8125 C 13.546875 -1.507812 13.363281 -1.257812 13 -1.0625 C 12.34375 -0.644531 11.628906 -0.316406 10.859375 -0.078125 C 10.085938 0.148438 9.140625 0.265625 8.015625 0.265625 Z M 3.875 -8.234375 C 4.476562 -7.773438 5.132812 -7.40625 5.84375 -7.125 C 6.5625 -6.84375 7.367188 -6.703125 8.265625 -6.703125 C 9.328125 -6.703125 10.132812 -6.894531 10.6875 -7.28125 C 11.238281 -7.664062 11.515625 -8.160156 11.515625 -8.765625 C 11.515625 -9.472656 11.238281 -10.066406 10.6875 -10.546875 C 10.132812 -11.035156 9.285156 -11.28125 8.140625 -11.28125 C 7.023438 -11.28125 6.101562 -11.003906 5.375 -10.453125 C 4.65625 -9.910156 4.15625 -9.171875 3.875 -8.234375 Z M 3.875 -8.234375 "/></g></g></g><g fill="#0991ff" fill-opacity="1"><g transform="translate(501.841262, 215.599992)"><g><path d="M 3.09375 0.265625 C 2.75 0.265625 2.492188 0.195312 2.328125 0.0625 C 2.160156 -0.0625 2.078125 -0.34375 2.078125 -0.78125 C 2.078125 -1.625 2.082031 -2.570312 2.09375 -3.625 C 2.113281 -4.675781 2.132812 -5.742188 2.15625 -6.828125 C 2.1875 -7.910156 2.222656 -8.925781 2.265625 -9.875 C 2.316406 -10.832031 2.375 -11.648438 2.4375 -12.328125 C 2.488281 -12.691406 2.601562 -12.941406 2.78125 -13.078125 C 2.96875 -13.210938 3.21875 -13.28125 3.53125 -13.28125 C 4.039062 -13.28125 4.375 -13.195312 4.53125 -13.03125 C 4.695312 -12.875 4.765625 -12.613281 4.734375 -12.25 L 4.609375 -10.5625 C 5.160156 -11.425781 5.84375 -12.09375 6.65625 -12.5625 C 7.46875 -13.03125 8.300781 -13.265625 9.15625 -13.265625 C 10.257812 -13.265625 11.15625 -13.019531 11.84375 -12.53125 C 12.539062 -12.039062 13.003906 -11.269531 13.234375 -10.21875 C 13.648438 -11.1875 14.3125 -11.9375 15.21875 -12.46875 C 16.132812 -13 17.078125 -13.265625 18.046875 -13.265625 C 19.453125 -13.265625 20.550781 -12.828125 21.34375 -11.953125 C 22.144531 -11.085938 22.546875 -9.597656 22.546875 -7.484375 C 22.546875 -6.378906 22.484375 -5.25 22.359375 -4.09375 C 22.234375 -2.9375 22.078125 -1.789062 21.890625 -0.65625 C 21.859375 -0.351562 21.785156 -0.128906 21.671875 0.015625 C 21.554688 0.160156 21.363281 0.234375 21.09375 0.234375 C 21.019531 0.234375 20.945312 0.226562 20.875 0.21875 C 20.8125 0.207031 20.734375 0.195312 20.640625 0.1875 C 20.265625 0.113281 20 0.0234375 19.84375 -0.078125 C 19.6875 -0.179688 19.609375 -0.335938 19.609375 -0.546875 C 19.609375 -0.578125 19.609375 -0.625 19.609375 -0.6875 C 19.617188 -0.75 19.632812 -0.816406 19.65625 -0.890625 C 19.78125 -1.546875 19.882812 -2.253906 19.96875 -3.015625 C 20.050781 -3.773438 20.117188 -4.523438 20.171875 -5.265625 C 20.222656 -6.003906 20.25 -6.640625 20.25 -7.171875 C 20.25 -8.710938 19.972656 -9.769531 19.421875 -10.34375 C 18.878906 -10.914062 18.144531 -11.203125 17.21875 -11.203125 C 16.46875 -11.203125 15.804688 -10.992188 15.234375 -10.578125 C 14.660156 -10.160156 14.207031 -9.628906 13.875 -8.984375 C 13.550781 -8.347656 13.375 -7.6875 13.34375 -7 C 13.320312 -6.644531 13.289062 -6.1875 13.25 -5.625 C 13.21875 -5.0625 13.179688 -4.460938 13.140625 -3.828125 C 13.097656 -3.203125 13.0625 -2.597656 13.03125 -2.015625 C 13.007812 -1.429688 12.988281 -0.957031 12.96875 -0.59375 C 12.957031 -0.226562 12.875 0.00390625 12.71875 0.109375 C 12.570312 0.210938 12.273438 0.265625 11.828125 0.265625 C 11.503906 0.265625 11.238281 0.210938 11.03125 0.109375 C 10.820312 0.015625 10.71875 -0.164062 10.71875 -0.4375 C 10.75 -1.269531 10.796875 -2.144531 10.859375 -3.0625 C 10.929688 -3.988281 11 -4.878906 11.0625 -5.734375 C 11.125 -6.585938 11.15625 -7.320312 11.15625 -7.9375 C 11.15625 -8.882812 11.007812 -9.585938 10.71875 -10.046875 C 10.4375 -10.503906 10.085938 -10.8125 9.671875 -10.96875 C 9.253906 -11.125 8.835938 -11.203125 8.421875 -11.203125 C 7.847656 -11.203125 7.25 -11.003906 6.625 -10.609375 C 6 -10.210938 5.472656 -9.617188 5.046875 -8.828125 C 4.628906 -8.035156 4.421875 -7.050781 4.421875 -5.875 C 4.421875 -5.632812 4.414062 -5.273438 4.40625 -4.796875 C 4.394531 -4.316406 4.382812 -3.800781 4.375 -3.25 C 4.375 -2.707031 4.367188 -2.203125 4.359375 -1.734375 C 4.347656 -1.273438 4.34375 -0.941406 4.34375 -0.734375 C 4.320312 -0.347656 4.21875 -0.0859375 4.03125 0.046875 C 3.84375 0.191406 3.53125 0.265625 3.09375 0.265625 Z M 3.09375 0.265625 "/></g></g></g><g fill="#0991ff" fill-opacity="1"><g transform="translate(526.455877, 215.599992)"><g><path d="M 6.453125 0.265625 C 5.441406 0.265625 4.566406 0.1875 3.828125 0.03125 C 3.097656 -0.125 2.398438 -0.359375 1.734375 -0.671875 C 1.617188 -0.742188 1.515625 -0.835938 1.421875 -0.953125 C 1.328125 -1.066406 1.28125 -1.207031 1.28125 -1.375 C 1.28125 -1.519531 1.320312 -1.703125 1.40625 -1.921875 C 1.53125 -2.203125 1.664062 -2.394531 1.8125 -2.5 C 1.957031 -2.613281 2.113281 -2.671875 2.28125 -2.671875 C 2.40625 -2.671875 2.53125 -2.644531 2.65625 -2.59375 C 3.34375 -2.320312 4.003906 -2.109375 4.640625 -1.953125 C 5.285156 -1.796875 5.984375 -1.71875 6.734375 -1.71875 C 7.960938 -1.71875 8.828125 -1.863281 9.328125 -2.15625 C 9.835938 -2.445312 10.09375 -2.914062 10.09375 -3.5625 C 10.09375 -3.875 10.007812 -4.160156 9.84375 -4.421875 C 9.675781 -4.679688 9.367188 -4.910156 8.921875 -5.109375 C 8.484375 -5.304688 7.832031 -5.457031 6.96875 -5.5625 C 5.320312 -5.75 4.082031 -6.140625 3.25 -6.734375 C 2.414062 -7.335938 2 -8.273438 2 -9.546875 C 2 -10.804688 2.414062 -11.738281 3.25 -12.34375 C 4.082031 -12.957031 5.257812 -13.265625 6.78125 -13.265625 C 7.957031 -13.265625 8.9375 -13.132812 9.71875 -12.875 C 10.5 -12.625 11.160156 -12.3125 11.703125 -11.9375 C 11.960938 -11.78125 12.09375 -11.582031 12.09375 -11.34375 C 12.09375 -11.144531 12.015625 -10.914062 11.859375 -10.65625 C 11.609375 -10.28125 11.332031 -10.09375 11.03125 -10.09375 C 10.882812 -10.09375 10.726562 -10.132812 10.5625 -10.21875 C 9.601562 -10.914062 8.363281 -11.265625 6.84375 -11.265625 C 5.144531 -11.265625 4.296875 -10.691406 4.296875 -9.546875 C 4.296875 -8.898438 4.578125 -8.429688 5.140625 -8.140625 C 5.703125 -7.847656 6.585938 -7.628906 7.796875 -7.484375 C 9.023438 -7.328125 9.960938 -7.066406 10.609375 -6.703125 C 11.265625 -6.335938 11.71875 -5.890625 11.96875 -5.359375 C 12.21875 -4.835938 12.34375 -4.226562 12.34375 -3.53125 C 12.34375 -2.375 11.898438 -1.453125 11.015625 -0.765625 C 10.140625 -0.078125 8.617188 0.265625 6.453125 0.265625 Z M 6.453125 0.265625 "/></g></g></g></svg>